<?xml version="1.0" encoding="UTF-8"?>
<!DOCTYPE svg PUBLIC "-//W3C//DTD SVG 1.1//EN" "http://www.w3.org/Graphics/SVG/1.1/DTD/svg11.dtd">
<svg xmlns="http://www.w3.org/2000/svg" version="1.1" width="358px" height="253px" style="shape-rendering:geometricPrecision; text-rendering:geometricPrecision; image-rendering:optimizeQuality; fill-rule:evenodd; clip-rule:evenodd" xmlns:xlink="http://www.w3.org/1999/xlink">
<g><path style="opacity:0.915" fill="#191919" d="M 156.5,-0.5 C 168.5,-0.5 180.5,-0.5 192.5,-0.5C 221.293,0.893038 249.293,6.72637 276.5,17C 320.625,36.2859 347.625,69.4526 357.5,116.5C 357.5,118.5 357.5,120.5 357.5,122.5C 355.568,172.146 337.235,214.646 302.5,250C 300.277,250.566 298.277,251.4 296.5,252.5C 295.833,252.5 295.167,252.5 294.5,252.5C 277.206,248.156 268.873,236.822 269.5,218.5C 269.84,212.451 270.506,206.451 271.5,200.5C 249.518,201.673 227.518,202.339 205.5,202.5C 207.089,213.593 206.589,224.593 204,235.5C 199.812,247.003 191.645,252.67 179.5,252.5C 177.5,252.5 175.5,252.5 173.5,252.5C 164.82,250.001 158.32,244.668 154,236.5C 147.139,221.911 141.472,206.911 137,191.5C 129.952,192.9 122.786,193.567 115.5,193.5C 100.754,192.947 86.087,191.614 71.5,189.5C 73.118,201.257 72.618,212.924 70,224.5C 65.6453,237.65 56.4787,243.317 42.5,241.5C 32.54,240.596 25.3733,235.596 21,226.5C 8.3288,200.807 1.16213,173.807 -0.5,145.5C -0.5,143.167 -0.5,140.833 -0.5,138.5C -0.579167,107.821 7.5875,79.4875 24,53.5C 45.3003,26.4165 73.1336,9.91647 107.5,4C 123.969,2.27573 140.302,0.775728 156.5,-0.5 Z"/></g>
<g><path style="opacity:1" fill="#f8f8f8" d="M 306.5,196.5 C 308.5,198.167 310.5,199.833 312.5,201.5C 312.167,202.833 311.833,204.167 311.5,205.5C 310.094,205.973 309.427,206.973 309.5,208.5C 308.094,208.973 307.427,209.973 307.5,211.5C 306.094,211.973 305.427,212.973 305.5,214.5C 303.738,215.262 302.738,216.596 302.5,218.5C 300.738,219.262 299.738,220.596 299.5,222.5C 297.146,224.626 294.813,226.626 292.5,228.5C 292.167,227.167 291.833,225.833 291.5,224.5C 291.296,215.423 291.963,206.423 293.5,197.5C 294.167,197.5 294.833,197.5 295.5,197.5C 299.215,197.577 302.881,197.244 306.5,196.5 Z"/></g>
<g><path style="opacity:1" fill="#3f3f3f" d="M 293.5,197.5 C 291.963,206.423 291.296,215.423 291.5,224.5C 290.78,215.948 290.447,207.282 290.5,198.5C 291.325,197.614 292.325,197.281 293.5,197.5 Z"/></g>
<g><path style="opacity:1" fill="#545454" d="M 315.5,198.5 C 314.962,200.117 314.629,201.784 314.5,203.5C 313.778,204.551 312.778,205.218 311.5,205.5C 311.833,204.167 312.167,202.833 312.5,201.5C 313.272,200.306 314.272,199.306 315.5,198.5 Z"/></g>
<g><path style="opacity:1" fill="#646464" d="M 311.5,205.5 C 311.573,207.027 310.906,208.027 309.5,208.5C 309.427,206.973 310.094,205.973 311.5,205.5 Z"/></g>
<g><path style="opacity:1" fill="#696969" d="M 309.5,208.5 C 309.573,210.027 308.906,211.027 307.5,211.5C 307.427,209.973 308.094,208.973 309.5,208.5 Z"/></g>
<g><path style="opacity:1" fill="#252525" d="M 314.5,203.5 C 314.629,201.784 314.962,200.117 315.5,198.5C 316.552,198.649 317.552,198.483 318.5,198C 318.167,197.667 317.833,197.333 317.5,197C 319.297,192.928 321.463,189.095 324,185.5C 324.495,183.527 324.662,181.527 324.5,179.5C 326.762,175.123 328.095,170.456 328.5,165.5C 328.802,162.627 329.469,159.961 330.5,157.5C 332.76,152.527 333.76,147.194 333.5,141.5C 333.999,134.51 334.332,127.51 334.5,120.5C 334.663,118.143 334.497,115.81 334,113.5C 332.029,106.724 329.863,100.057 327.5,93.5C 327.759,91.0107 326.759,89.344 324.5,88.5C 321.766,83.37 318.766,78.37 315.5,73.5C 314.85,71.5648 314.517,69.5648 314.5,67.5C 313.325,67.719 312.325,67.3857 311.5,66.5C 312.641,65.5745 312.641,64.7412 311.5,64C 309.754,63.5291 308.087,62.8624 306.5,62C 304.229,59.2179 301.563,57.0512 298.5,55.5C 297.415,53.4131 295.749,52.0798 293.5,51.5C 291.973,51.573 290.973,50.9063 290.5,49.5C 290.027,48.0937 289.027,47.427 287.5,47.5C 284.331,46.0834 281.331,44.4168 278.5,42.5C 276.685,39.5926 274.019,38.2593 270.5,38.5C 268.824,36.1663 266.491,35.1663 263.5,35.5C 263.167,35.5 262.833,35.5 262.5,35.5C 258.37,32.6761 253.703,31.0094 248.5,30.5C 246.901,30.7678 245.568,30.4345 244.5,29.5C 242.162,27.9605 239.495,27.2938 236.5,27.5C 236.082,26.7784 235.416,26.2784 234.5,26C 231.854,25.5026 229.187,25.3359 226.5,25.5C 222.817,23.7501 218.817,23.0834 214.5,23.5C 213.833,23.5 213.167,23.5 212.5,23.5C 212.082,22.7784 211.416,22.2784 210.5,22C 192.354,20.3316 174.354,20.1649 156.5,21.5C 148.821,21.5962 141.154,21.9295 133.5,22.5C 128.901,22.8 124.401,22.4667 120,21.5C 116.596,22.4571 113.429,23.7905 110.5,25.5C 103.164,26.4165 96.164,28.4165 89.5,31.5C 86.284,31.3455 83.6174,32.3455 81.5,34.5C 79.5,35.1667 77.5,35.8333 75.5,36.5C 73.9731,36.427 72.9731,37.0937 72.5,38.5C 70.9731,38.427 69.9731,39.0937 69.5,40.5C 58.3873,45.6071 49.3873,53.2738 42.5,63.5C 40.4131,64.5846 39.0798,66.2512 38.5,68.5C 37.1103,69.8993 36.1103,71.5659 35.5,73.5C 33.4405,76.2402 31.7738,79.2402 30.5,82.5C 28.8191,86.8797 26.9857,91.2131 25,95.5C 24.5065,97.1341 24.3398,98.8008 24.5,100.5C 23.0687,101.78 22.4021,103.447 22.5,105.5C 21.994,110.523 21.3273,115.523 20.5,120.5C 19.7552,123.39 19.0885,126.39 18.5,129.5C 17.822,139.235 17.1553,149.068 16.5,159C 18.1134,161.228 18.78,163.728 18.5,166.5C 17.1266,166.343 15.7932,166.51 14.5,167C 15.6667,167.5 16.5,168.333 17,169.5C 17.3333,169.167 17.6667,168.833 18,168.5C 18.5074,169.996 18.0074,171.163 16.5,172C 17.7014,172.903 18.5348,174.069 19,175.5C 19.6667,174.167 20.3333,174.167 21,175.5C 21.7568,177.315 22.5902,178.981 23.5,180.5C 23.2594,182.898 23.9261,184.898 25.5,186.5C 25.6547,191.831 27.3214,196.498 30.5,200.5C 30.5,200.833 30.5,201.167 30.5,201.5C 30.3874,204.049 31.0541,206.382 32.5,208.5C 32.2907,209.086 31.9574,209.586 31.5,210C 32.7343,212.072 34.4009,213.572 36.5,214.5C 39.4205,220.27 43.9205,221.937 50,219.5C 50.9023,217.073 51.7356,214.74 52.5,212.5C 53.1652,209.183 53.4986,205.683 53.5,202C 52.7931,191.486 52.2931,180.986 52,170.5C 56.1686,165.746 61.0019,164.746 66.5,167.5C 67.1667,168.167 67.8333,168.833 68.5,169.5C 68.9704,170.693 69.9704,171.36 71.5,171.5C 86.3784,174.128 101.378,175.128 116.5,174.5C 121.874,174.477 127.207,173.977 132.5,173C 134.653,172.901 136.319,172.067 137.5,170.5C 143.626,167.423 149.293,168.09 154.5,172.5C 154.259,174.898 154.926,176.898 156.5,178.5C 157.967,182.702 158.967,187.035 159.5,191.5C 159.5,192.833 159.5,194.167 159.5,195.5C 159.773,197.451 159.107,198.951 157.5,200C 160.852,201.929 162.185,204.596 161.5,208C 163.697,211.349 166.03,214.516 168.5,217.5C 168.833,220.167 169.167,222.833 169.5,225.5C 170.5,225.5 171.5,225.5 172.5,225.5C 173.837,226.315 174.837,227.482 175.5,229C 178.76,229.784 181.927,229.617 185,228.5C 186.115,221.074 186.615,213.574 186.5,206C 186.5,199.325 186.166,192.825 185.5,186.5C 185.034,181.57 185.701,176.903 187.5,172.5C 191.167,171.167 194.833,171.167 198.5,172.5C 199.508,174.544 200.508,176.544 201.5,178.5C 201.5,180.5 202.5,181.5 204.5,181.5C 210.274,182.946 216.274,183.612 222.5,183.5C 230.167,183.5 237.833,183.5 245.5,183.5C 256.525,183.054 267.525,182.22 278.5,181C 282.133,180.851 285.466,180.018 288.5,178.5C 290.167,178.5 291.833,178.5 293.5,178.5C 296.898,178.18 300.232,178.513 303.5,179.5C 304.833,180.5 304.833,181.5 303.5,182.5C 305.296,183.141 306.796,184.141 308,185.5C 308.597,188.681 308.097,191.681 306.5,194.5C 306.5,194.833 306.5,195.167 306.5,195.5C 302.64,195.808 298.974,196.475 295.5,197.5C 294.833,197.5 294.167,197.5 293.5,197.5C 293.611,196.883 293.944,196.383 294.5,196C 296.891,195.713 299.224,195.213 301.5,194.5C 302.355,192.392 303.022,190.226 303.5,188C 303.37,186.941 302.87,186.108 302,185.5C 299,186.167 296,186.833 293,187.5C 292.389,183.728 291.389,183.728 290,187.5C 289.667,187.167 289.333,186.833 289,186.5C 287.604,188.527 285.938,188.86 284,187.5C 279.323,189.042 274.489,190.042 269.5,190.5C 268.328,190.081 267.328,189.415 266.5,188.5C 265.304,188.846 265.304,189.346 266.5,190C 265.234,190.309 264.067,190.809 263,191.5C 259.716,191.613 256.383,191.28 253,190.5C 251.899,192.394 250.566,193.061 249,192.5C 248.667,191.833 248.333,191.167 248,190.5C 247.196,191.804 246.029,192.471 244.5,192.5C 240.062,192.29 235.562,192.29 231,192.5C 229.715,192.05 228.548,191.383 227.5,190.5C 225.548,191.814 223.715,192.48 222,192.5C 221.667,191.833 221.333,191.167 221,190.5C 218.939,191.327 216.605,191.66 214,191.5C 212.289,191.561 210.956,190.894 210,189.5C 208.846,191.957 207.512,191.957 206,189.5C 204.951,190.517 203.784,190.684 202.5,190C 200.333,187.167 197.833,184.667 195,182.5C 193.19,185.392 193.357,188.058 195.5,190.5C 193.252,191.324 193.086,192.324 195,193.5C 195.777,196.429 195.61,199.263 194.5,202C 195.76,204.213 196.426,206.713 196.5,209.5C 196.027,212.813 196.027,215.979 196.5,219C 195.833,219.333 195.167,219.667 194.5,220C 195.896,224.799 194.396,228.965 190,232.5C 189.667,232.167 189.333,231.833 189,231.5C 187.751,234.586 185.584,236.92 182.5,238.5C 180.836,237.777 179.169,238.11 177.5,239.5C 169.631,233.637 163.631,226.304 159.5,217.5C 160.025,216.808 160.692,216.308 161.5,216C 160.241,215.077 158.908,214.243 157.5,213.5C 157.709,212.914 158.043,212.414 158.5,212C 157.448,207.748 155.448,203.582 152.5,199.5C 152.709,198.914 153.043,198.414 153.5,198C 149.995,192.134 148.328,185.968 148.5,179.5C 147.045,177.78 146.212,175.78 146,173.5C 144.601,174.227 143.101,174.727 141.5,175C 139.268,177.735 136.601,179.902 133.5,181.5C 132.033,181.277 130.533,180.944 129,180.5C 126.962,182.072 124.629,183.072 122,183.5C 120.887,182.289 119.72,182.289 118.5,183.5C 117.808,182.975 117.308,182.308 117,181.5C 116.692,182.308 116.192,182.975 115.5,183.5C 114.402,182.385 113.235,182.385 112,183.5C 110.739,183.241 109.739,182.574 109,181.5C 108.026,183.878 107.359,183.544 107,180.5C 105.704,182.815 103.704,183.815 101,183.5C 99.8333,183.333 98.6667,183.167 97.5,183C 99.9288,182.549 100.096,181.715 98,180.5C 97,181.5 96,182.5 95,183.5C 94.15,182.576 93.15,182.576 92,183.5C 90.5272,183.097 89.1939,182.43 88,181.5C 85.7683,182.187 83.6016,182.521 81.5,182.5C 80.4593,180.009 79.6259,180.009 79,182.5C 78.5112,180.396 77.3445,180.062 75.5,181.5C 73.8034,181.101 72.1368,180.601 70.5,180C 65.5829,176.42 61.7496,172.587 59,168.5C 58.788,171.44 57.288,173.274 54.5,174C 55.6776,174.967 57.011,175.467 58.5,175.5C 58.8333,176.5 59.1667,177.5 59.5,178.5C 60.4882,185.51 61.1549,192.343 61.5,199C 60.7107,199.546 59.7107,200.213 58.5,201C 59.448,201.483 60.448,201.649 61.5,201.5C 61.0527,205.951 61.0527,209.951 61.5,213.5C 60.8721,215.258 59.8721,216.758 58.5,218C 58.8333,218.333 59.1667,218.667 59.5,219C 57.9571,220.878 56.1238,222.378 54,223.5C 50.1071,223.593 46.1071,223.26 42,222.5C 39.8006,224.455 37.3006,224.621 34.5,223C 31.2252,220.296 28.8919,217.463 27.5,214.5C 28.0253,213.808 28.6919,213.308 29.5,213C 28.2341,212.691 27.0674,212.191 26,211.5C 25.0701,209.064 23.9034,206.731 22.5,204.5C 22.7093,203.914 23.0426,203.414 23.5,203C 20.2555,200.211 19.9222,198.044 22.5,196.5C 21.6798,194.889 20.3464,194.222 18.5,194.5C 17.9039,189.801 16.5706,185.301 14.5,181C 15.1667,180.333 15.8333,179.667 16.5,179C 14.6797,178.021 13.513,176.521 13,174.5C 11.1037,168.323 9.93702,162.156 9.5,156C 9.55166,150.23 9.55166,144.23 9.5,138C 9.3327,134.63 9.99936,131.463 11.5,128.5C 11.3678,127.037 11.0345,125.537 10.5,124C 10.9054,123.055 11.572,122.388 12.5,122C 11.8263,120.249 11.493,118.583 11.5,117C 12.1667,116.333 12.8333,115.667 13.5,115C 12.4833,111.862 12.4833,108.362 13.5,104.5C 14.675,104.719 15.675,104.386 16.5,103.5C 14.8611,100.96 15.1944,98.7931 17.5,97C 16.9208,95.092 16.9208,93.4253 17.5,92C 21.1051,83.9628 25.2717,75.7962 30,67.5C 32.1753,64.6238 34.6753,62.1238 37.5,60C 37.1667,59.6667 36.8333,59.3333 36.5,59C 43.6643,51.3961 51.331,44.2295 59.5,37.5C 64.2007,34.3019 69.034,31.3019 74,28.5C 75.0875,30.9316 75.5875,30.5983 75.5,27.5C 77.4835,27.6168 79.1502,26.9501 80.5,25.5C 82.9734,27.0981 82.9734,28.5981 80.5,30C 84.9304,30.27 85.597,28.77 82.5,25.5C 87.0504,23.3136 91.7171,21.3136 96.5,19.5C 97.1924,20.0253 97.6924,20.6919 98,21.5C 98.3742,20.5838 98.8742,19.7504 99.5,19C 102.859,18.2287 106.192,17.3953 109.5,16.5C 111.335,17.1916 113.168,16.8583 115,15.5C 116,15.8333 117,16.1667 118,16.5C 124.836,15.8435 131.836,14.8435 139,13.5C 142.542,13.2226 145.876,13.5559 149,14.5C 149.308,13.6919 149.808,13.0253 150.5,12.5C 151.167,13.5 151.833,14.5 152.5,15.5C 153.506,15.0623 153.506,14.3957 152.5,13.5C 153.333,13.1667 154.167,12.8333 155,12.5C 169.197,12.7666 183.697,12.9333 198.5,13C 199.416,13.3742 200.25,13.8742 201,14.5C 204,14.1667 207,13.8333 210,13.5C 211.577,16.6754 213.41,17.0088 215.5,14.5C 217.459,14.8748 219.293,15.5415 221,16.5C 224.256,15.3068 227.59,15.9735 231,18.5C 232.388,17.4464 233.888,17.2797 235.5,18C 234.346,18.9138 234.513,19.7471 236,20.5C 236.333,19.8333 236.667,19.1667 237,18.5C 237.741,19.6405 238.575,19.6405 239.5,18.5C 242.711,19.7804 245.878,21.1137 249,22.5C 251.316,21.6327 253.316,22.2993 255,24.5C 257.128,24.073 259.295,24.573 261.5,26C 261.93,26.9195 262.264,27.7528 262.5,28.5C 263.167,27.8333 263.833,27.1667 264.5,26.5C 267.673,28.2831 271.006,29.7831 274.5,31C 275.126,31.7504 275.626,32.5838 276,33.5C 278.33,32.8438 279.997,33.8438 281,36.5C 282.749,35.701 284.082,36.3676 285,38.5C 286.073,37.7203 287.24,37.887 288.5,39C 294.943,44.3282 300.943,49.1615 306.5,53.5C 306.351,54.552 306.517,55.552 307,56.5C 307.333,56.1667 307.667,55.8333 308,55.5C 309.53,57.2262 310.53,59.2262 311,61.5C 312,61.5 313,61.5 314,61.5C 325.64,74.3558 334.473,88.5225 340.5,104C 339.692,104.308 339.025,104.808 338.5,105.5C 338.846,106.696 339.346,106.696 340,105.5C 341.675,107.591 342.175,109.758 341.5,112C 343.301,112.317 343.634,112.984 342.5,114C 343.43,115.194 344.097,116.527 344.5,118C 343.643,124.393 342.643,130.727 341.5,137C 342.971,139.757 341.971,142.09 338.5,144C 339.833,144.667 339.833,145.333 338.5,146C 342.25,145.942 342.583,147.609 339.5,151C 339.833,152 340.167,153 340.5,154C 339.833,154.333 339.167,154.667 338.5,155C 338.833,156 339.167,157 339.5,158C 335.5,158.667 335.5,159.333 339.5,160C 337.843,167.537 335.176,174.204 331.5,180C 331.233,185.732 329.066,190.898 325,195.5C 322.385,198.115 319.385,201.115 316,204.5C 315.617,203.944 315.117,203.611 314.5,203.5 Z"/></g>
<g><path style="opacity:1" fill="#4b4b4b" d="M 30.5,201.5 C 32.7365,205.645 34.7365,209.978 36.5,214.5C 34.4009,213.572 32.7343,212.072 31.5,210C 31.9574,209.586 32.2907,209.086 32.5,208.5C 31.0541,206.382 30.3874,204.049 30.5,201.5 Z"/></g>
<g><path style="opacity:1" fill="#444444" d="M 323.5,179.5 C 323.833,179.5 324.167,179.5 324.5,179.5C 324.662,181.527 324.495,183.527 324,185.5C 321.463,189.095 319.297,192.928 317.5,197C 317.833,197.333 318.167,197.667 318.5,198C 317.552,198.483 316.552,198.649 315.5,198.5C 318.445,192.277 321.112,185.944 323.5,179.5 Z"/></g>
<g><path style="opacity:1" fill="#6b6b6b" d="M 25.5,186.5 C 27.5376,190.94 29.2042,195.607 30.5,200.5C 27.3214,196.498 25.6547,191.831 25.5,186.5 Z"/></g>
<g><path style="opacity:1" fill="#666666" d="M 23.5,180.5 C 25.0739,182.102 25.7406,184.102 25.5,186.5C 23.9261,184.898 23.2594,182.898 23.5,180.5 Z"/></g>
<g><path style="opacity:1" fill="#7c7c7c" d="M 328.5,165.5 C 328.095,170.456 326.762,175.123 324.5,179.5C 324.167,179.5 323.833,179.5 323.5,179.5C 324.796,174.607 326.462,169.94 328.5,165.5 Z"/></g>
<g><path style="opacity:1" fill="#383838" d="M 18.5,129.5 C 18.1731,139.015 18.5064,148.348 19.5,157.5C 20.3198,165.265 21.6531,172.931 23.5,180.5C 22.5902,178.981 21.7568,177.315 21,175.5C 20.3333,174.167 19.6667,174.167 19,175.5C 18.5348,174.069 17.7014,172.903 16.5,172C 18.0074,171.163 18.5074,169.996 18,168.5C 17.6667,168.833 17.3333,169.167 17,169.5C 16.5,168.333 15.6667,167.5 14.5,167C 15.7932,166.51 17.1266,166.343 18.5,166.5C 18.78,163.728 18.1134,161.228 16.5,159C 17.1553,149.068 17.822,139.235 18.5,129.5 Z"/></g>
<g><path style="opacity:1" fill="#4e4e4e" d="M 332.5,141.5 C 332.833,141.5 333.167,141.5 333.5,141.5C 333.76,147.194 332.76,152.527 330.5,157.5C 331.167,152.167 331.833,146.833 332.5,141.5 Z"/></g>
<g><path style="opacity:1" fill="#858585" d="M 20.5,120.5 C 19.7149,132.817 19.3816,145.15 19.5,157.5C 18.5064,148.348 18.1731,139.015 18.5,129.5C 19.0885,126.39 19.7552,123.39 20.5,120.5 Z"/></g>
<g><path style="opacity:1" fill="#898989" d="M 334.5,120.5 C 334.332,127.51 333.999,134.51 333.5,141.5C 333.167,141.5 332.833,141.5 332.5,141.5C 332.458,134.289 333.125,127.289 334.5,120.5 Z"/></g>
<g><path style="opacity:1" fill="#747474" d="M 24.5,100.5 C 24.5979,102.553 23.9313,104.22 22.5,105.5C 22.4021,103.447 23.0687,101.78 24.5,100.5 Z"/></g>
<g><path style="opacity:1" fill="#525252" d="M 324.5,88.5 C 326.759,89.344 327.759,91.0107 327.5,93.5C 325.75,92.3406 324.75,90.674 324.5,88.5 Z"/></g>
<g><path style="opacity:1" fill="#f1f1f1" d="M 198.5,22.5 C 203.13,23.2295 207.797,23.5628 212.5,23.5C 213.167,23.5 213.833,23.5 214.5,23.5C 218.267,24.7947 222.267,25.4613 226.5,25.5C 229.627,26.5808 232.96,27.2474 236.5,27.5C 238.905,28.7682 241.572,29.4349 244.5,29.5C 245.568,30.4345 246.901,30.7678 248.5,30.5C 252.94,32.5376 257.607,34.2042 262.5,35.5C 262.833,35.5 263.167,35.5 263.5,35.5C 265.509,37.0652 267.843,38.0652 270.5,38.5C 273.035,40.017 275.702,41.3503 278.5,42.5C 281.331,44.4168 284.331,46.0834 287.5,47.5C 287.973,48.9063 288.973,49.573 290.5,49.5C 290.973,50.9063 291.973,51.573 293.5,51.5C 294.585,53.5869 296.251,54.9202 298.5,55.5C 304.87,60.8695 310.537,66.8695 315.5,73.5C 318.766,78.37 321.766,83.37 324.5,88.5C 324.75,90.674 325.75,92.3406 327.5,93.5C 329.863,100.057 332.029,106.724 334,113.5C 334.497,115.81 334.663,118.143 334.5,120.5C 333.125,127.289 332.458,134.289 332.5,141.5C 331.833,146.833 331.167,152.167 330.5,157.5C 329.469,159.961 328.802,162.627 328.5,165.5C 326.462,169.94 324.796,174.607 323.5,179.5C 321.112,185.944 318.445,192.277 315.5,198.5C 314.272,199.306 313.272,200.306 312.5,201.5C 310.5,199.833 308.5,198.167 306.5,196.5C 306.5,196.167 306.5,195.833 306.5,195.5C 308.17,195.249 309.67,194.582 311,193.5C 312.277,189.903 312.61,186.236 312,182.5C 310.122,180.957 308.622,179.124 307.5,177C 303.973,176.192 300.64,176.359 297.5,177.5C 295.901,177.232 294.568,177.566 293.5,178.5C 291.833,178.5 290.167,178.5 288.5,178.5C 274.035,180.229 259.701,181.895 245.5,183.5C 237.833,183.5 230.167,183.5 222.5,183.5C 216.726,182.054 210.726,181.388 204.5,181.5C 202.5,181.5 201.5,180.5 201.5,178.5C 201.975,175.687 200.975,173.687 198.5,172.5C 198.167,171.833 197.833,171.167 197.5,170.5C 197.389,169.883 197.056,169.383 196.5,169C 190.588,167.039 186.588,168.873 184.5,174.5C 184.183,178.702 184.517,182.702 185.5,186.5C 186.166,192.825 186.5,199.325 186.5,206C 186.615,213.574 186.115,221.074 185,228.5C 181.927,229.617 178.76,229.784 175.5,229C 174.837,227.482 173.837,226.315 172.5,225.5C 171.674,222.515 170.341,219.849 168.5,217.5C 166.215,211.93 164.215,206.264 162.5,200.5C 161.946,197.254 160.946,194.254 159.5,191.5C 158.967,187.035 157.967,182.702 156.5,178.5C 156.741,176.102 156.074,174.102 154.5,172.5C 153.25,170.846 151.916,169.179 150.5,167.5C 148.142,164.764 145.142,163.93 141.5,165C 139.937,165.759 138.937,166.926 138.5,168.5C 138.167,169.167 137.833,169.833 137.5,170.5C 130.4,171.922 123.4,173.255 116.5,174.5C 101.378,175.128 86.3784,174.128 71.5,171.5C 69.9704,171.36 68.9704,170.693 68.5,169.5C 68.9546,166.069 67.6213,163.736 64.5,162.5C 61.4053,159.371 57.7386,158.705 53.5,160.5C 51.1119,161.219 49.6119,162.885 49,165.5C 48.2109,167.712 48.3775,169.712 49.5,171.5C 49.2322,173.099 49.5655,174.432 50.5,175.5C 51.931,187.787 52.5977,200.12 52.5,212.5C 51.7356,214.74 50.9023,217.073 50,219.5C 43.9205,221.937 39.4205,220.27 36.5,214.5C 34.7365,209.978 32.7365,205.645 30.5,201.5C 30.5,201.167 30.5,200.833 30.5,200.5C 29.2042,195.607 27.5376,190.94 25.5,186.5C 25.7406,184.102 25.0739,182.102 23.5,180.5C 21.6531,172.931 20.3198,165.265 19.5,157.5C 19.3816,145.15 19.7149,132.817 20.5,120.5C 21.3273,115.523 21.994,110.523 22.5,105.5C 23.9313,104.22 24.5979,102.553 24.5,100.5C 24.3398,98.8008 24.5065,97.1341 25,95.5C 26.9857,91.2131 28.8191,86.8797 30.5,82.5C 34.2031,80.7915 35.8698,77.7915 35.5,73.5C 36.1103,71.5659 37.1103,69.8993 38.5,68.5C 40.5869,67.4154 41.9202,65.7488 42.5,63.5C 49.3873,53.2738 58.3873,45.6071 69.5,40.5C 71.0269,40.573 72.0269,39.9063 72.5,38.5C 74.0269,38.573 75.0269,37.9063 75.5,36.5C 77.5,35.8333 79.5,35.1667 81.5,34.5C 84.3973,33.871 87.064,32.871 89.5,31.5C 96.164,28.4165 103.164,26.4165 110.5,25.5C 115.463,24.746 120.463,24.4126 125.5,24.5C 149.79,22.7189 174.123,22.0522 198.5,22.5 Z"/></g>
<g><path style="opacity:1" fill="#3b3b3b" d="M 159.5,195.5 C 160.065,197.42 161.065,199.087 162.5,200.5C 164.215,206.264 166.215,211.93 168.5,217.5C 166.03,214.516 163.697,211.349 161.5,208C 162.185,204.596 160.852,201.929 157.5,200C 159.107,198.951 159.773,197.451 159.5,195.5 Z"/></g>
<g><path style="opacity:1" fill="#9f9f9f" d="M 306.5,195.5 C 306.5,195.833 306.5,196.167 306.5,196.5C 302.881,197.244 299.215,197.577 295.5,197.5C 298.974,196.475 302.64,195.808 306.5,195.5 Z"/></g>
<g><path style="opacity:1" fill="#747474" d="M 159.5,191.5 C 160.946,194.254 161.946,197.254 162.5,200.5C 161.065,199.087 160.065,197.42 159.5,195.5C 159.5,194.167 159.5,192.833 159.5,191.5 Z"/></g>
<g><path style="opacity:1" fill="#444444" d="M 293.5,178.5 C 294.568,177.566 295.901,177.232 297.5,177.5C 304.836,176.68 309.169,179.846 310.5,187C 310.056,190.059 308.723,192.559 306.5,194.5C 308.097,191.681 308.597,188.681 308,185.5C 306.796,184.141 305.296,183.141 303.5,182.5C 304.833,181.5 304.833,180.5 303.5,179.5C 300.232,178.513 296.898,178.18 293.5,178.5 Z"/></g>
<g><path style="opacity:1" fill="#838383" d="M 297.5,177.5 C 300.64,176.359 303.973,176.192 307.5,177C 308.622,179.124 310.122,180.957 312,182.5C 312.61,186.236 312.277,189.903 311,193.5C 309.67,194.582 308.17,195.249 306.5,195.5C 306.5,195.167 306.5,194.833 306.5,194.5C 308.723,192.559 310.056,190.059 310.5,187C 309.169,179.846 304.836,176.68 297.5,177.5 Z"/></g>
<g><path style="opacity:1" fill="#6e6e6e" d="M 288.5,178.5 C 285.466,180.018 282.133,180.851 278.5,181C 267.525,182.22 256.525,183.054 245.5,183.5C 259.701,181.895 274.035,180.229 288.5,178.5 Z"/></g>
<g><path style="opacity:1" fill="#6e6e6e" d="M 204.5,181.5 C 210.726,181.388 216.726,182.054 222.5,183.5C 216.274,183.612 210.274,182.946 204.5,181.5 Z"/></g>
<g><path style="opacity:1" fill="#7c7c7c" d="M 154.5,172.5 C 156.074,174.102 156.741,176.102 156.5,178.5C 154.926,176.898 154.259,174.898 154.5,172.5 Z"/></g>
<g><path style="opacity:1" fill="#717171" d="M 187.5,172.5 C 185.701,176.903 185.034,181.57 185.5,186.5C 184.517,182.702 184.183,178.702 184.5,174.5C 185.5,173.833 186.5,173.167 187.5,172.5 Z"/></g>
<g><path style="opacity:1" fill="#727272" d="M 198.5,172.5 C 200.975,173.687 201.975,175.687 201.5,178.5C 200.508,176.544 199.508,174.544 198.5,172.5 Z"/></g>
<g><path style="opacity:1" fill="#6a6a6a" d="M 137.5,170.5 C 136.319,172.067 134.653,172.901 132.5,173C 127.207,173.977 121.874,174.477 116.5,174.5C 123.4,173.255 130.4,171.922 137.5,170.5 Z"/></g>
<g><path style="opacity:1" fill="#676767" d="M 197.5,170.5 C 197.833,171.167 198.167,171.833 198.5,172.5C 194.833,171.167 191.167,171.167 187.5,172.5C 187.953,171.542 188.619,170.708 189.5,170C 192.221,169.398 194.887,169.565 197.5,170.5 Z"/></g>
<g><path style="opacity:1" fill="#afafaf" d="M 197.5,170.5 C 194.887,169.565 192.221,169.398 189.5,170C 188.619,170.708 187.953,171.542 187.5,172.5C 186.5,173.167 185.5,173.833 184.5,174.5C 186.588,168.873 190.588,167.039 196.5,169C 197.056,169.383 197.389,169.883 197.5,170.5 Z"/></g>
<g><path style="opacity:1" fill="#686868" d="M 150.5,167.5 C 151.916,169.179 153.25,170.846 154.5,172.5C 149.293,168.09 143.626,167.423 137.5,170.5C 137.833,169.833 138.167,169.167 138.5,168.5C 142.316,166.29 146.316,165.956 150.5,167.5 Z"/></g>
<g><path style="opacity:1" fill="#bfbfbf" d="M 150.5,167.5 C 146.316,165.956 142.316,166.29 138.5,168.5C 138.937,166.926 139.937,165.759 141.5,165C 145.142,163.93 148.142,164.764 150.5,167.5 Z"/></g>
<g><path style="opacity:1" fill="#393939" d="M 62.5,162.5 C 63.1667,162.5 63.8333,162.5 64.5,162.5C 65.1667,164.167 65.8333,165.833 66.5,167.5C 61.0019,164.746 56.1686,165.746 52,170.5C 52.2931,180.986 52.7931,191.486 53.5,202C 53.4986,205.683 53.1652,209.183 52.5,212.5C 52.5977,200.12 51.931,187.787 50.5,175.5C 49.6735,166.661 53.6735,162.328 62.5,162.5 Z"/></g>
<g><path style="opacity:1" fill="#555555" d="M 62.5,162.5 C 53.6735,162.328 49.6735,166.661 50.5,175.5C 49.5655,174.432 49.2322,173.099 49.5,171.5C 49.1706,168.772 49.8372,166.438 51.5,164.5C 54.7871,161.466 58.4538,160.8 62.5,162.5 Z"/></g>
<g><path style="opacity:1" fill="#b5b5b5" d="M 53.5,160.5 C 52.3995,161.605 51.7329,162.938 51.5,164.5C 49.8372,166.438 49.1706,168.772 49.5,171.5C 48.3775,169.712 48.2109,167.712 49,165.5C 49.6119,162.885 51.1119,161.219 53.5,160.5 Z"/></g>
<g><path style="opacity:1" fill="#767676" d="M 64.5,162.5 C 67.6213,163.736 68.9546,166.069 68.5,169.5C 67.8333,168.833 67.1667,168.167 66.5,167.5C 65.8333,165.833 65.1667,164.167 64.5,162.5 Z"/></g>
<g><path style="opacity:1" fill="#787878" d="M 64.5,162.5 C 63.8333,162.5 63.1667,162.5 62.5,162.5C 58.4538,160.8 54.7871,161.466 51.5,164.5C 51.7329,162.938 52.3995,161.605 53.5,160.5C 57.7386,158.705 61.4053,159.371 64.5,162.5 Z"/></g>
<g><path style="opacity:1" fill="#c8c8c8" d="M 35.5,73.5 C 35.8698,77.7915 34.2031,80.7915 30.5,82.5C 31.7738,79.2402 33.4405,76.2402 35.5,73.5 Z"/></g>
<g><path style="opacity:1" fill="#989898" d="M 42.5,63.5 C 41.9202,65.7488 40.5869,67.4154 38.5,68.5C 39.0798,66.2512 40.4131,64.5846 42.5,63.5 Z"/></g>
<g><path style="opacity:1" fill="#444444" d="M 298.5,55.5 C 301.563,57.0512 304.229,59.2179 306.5,62C 308.087,62.8624 309.754,63.5291 311.5,64C 312.641,64.7412 312.641,65.5745 311.5,66.5C 312.325,67.3857 313.325,67.719 314.5,67.5C 314.517,69.5648 314.85,71.5648 315.5,73.5C 310.537,66.8695 304.87,60.8695 298.5,55.5 Z"/></g>
<g><path style="opacity:1" fill="#676767" d="M 293.5,51.5 C 295.749,52.0798 297.415,53.4131 298.5,55.5C 296.251,54.9202 294.585,53.5869 293.5,51.5 Z"/></g>
<g><path style="opacity:1" fill="#6f6f6f" d="M 287.5,47.5 C 289.027,47.427 290.027,48.0937 290.5,49.5C 288.973,49.573 287.973,48.9063 287.5,47.5 Z"/></g>
<g><path style="opacity:1" fill="#5e5e5e" d="M 270.5,38.5 C 274.019,38.2593 276.685,39.5926 278.5,42.5C 275.702,41.3503 273.035,40.017 270.5,38.5 Z"/></g>
<g><path style="opacity:1" fill="#a2a2a2" d="M 72.5,38.5 C 72.0269,39.9063 71.0269,40.573 69.5,40.5C 69.9731,39.0937 70.9731,38.427 72.5,38.5 Z"/></g>
<g><path style="opacity:1" fill="#797979" d="M 75.5,36.5 C 75.0269,37.9063 74.0269,38.573 72.5,38.5C 72.9731,37.0937 73.9731,36.427 75.5,36.5 Z"/></g>
<g><path style="opacity:1" fill="#636363" d="M 263.5,35.5 C 266.491,35.1663 268.824,36.1663 270.5,38.5C 267.843,38.0652 265.509,37.0652 263.5,35.5 Z"/></g>
<g><path style="opacity:1" fill="#898989" d="M 89.5,31.5 C 87.064,32.871 84.3973,33.871 81.5,34.5C 83.6174,32.3455 86.284,31.3455 89.5,31.5 Z"/></g>
<g><path style="opacity:1" fill="#7c7c7c" d="M 248.5,30.5 C 253.703,31.0094 258.37,32.6761 262.5,35.5C 257.607,34.2042 252.94,32.5376 248.5,30.5 Z"/></g>
<g><path style="opacity:1" fill="#7a7a7a" d="M 236.5,27.5 C 239.495,27.2938 242.162,27.9605 244.5,29.5C 241.572,29.4349 238.905,28.7682 236.5,27.5 Z"/></g>
<g><path style="opacity:1" fill="#626262" d="M 226.5,25.5 C 229.187,25.3359 231.854,25.5026 234.5,26C 235.416,26.2784 236.082,26.7784 236.5,27.5C 232.96,27.2474 229.627,26.5808 226.5,25.5 Z"/></g>
<g><path style="opacity:1" fill="#5d5d5d" d="M 214.5,23.5 C 218.817,23.0834 222.817,23.7501 226.5,25.5C 222.267,25.4613 218.267,24.7947 214.5,23.5 Z"/></g>
<g><path style="opacity:1" fill="#8e8e8e" d="M 156.5,21.5 C 170.677,21.1709 184.677,21.5042 198.5,22.5C 174.123,22.0522 149.79,22.7189 125.5,24.5C 128.167,23.8333 130.833,23.1667 133.5,22.5C 141.154,21.9295 148.821,21.5962 156.5,21.5 Z"/></g>
<g><path style="opacity:1" fill="#404040" d="M 133.5,22.5 C 130.833,23.1667 128.167,23.8333 125.5,24.5C 120.463,24.4126 115.463,24.746 110.5,25.5C 113.429,23.7905 116.596,22.4571 120,21.5C 124.401,22.4667 128.901,22.8 133.5,22.5 Z"/></g>
<g><path style="opacity:1" fill="#515151" d="M 156.5,21.5 C 174.354,20.1649 192.354,20.3316 210.5,22C 211.416,22.2784 212.082,22.7784 212.5,23.5C 207.797,23.5628 203.13,23.2295 198.5,22.5C 184.677,21.5042 170.677,21.1709 156.5,21.5 Z"/></g>
<g><path style="opacity:1" fill="#656565" d="M 307.5,211.5 C 307.573,213.027 306.906,214.027 305.5,214.5C 305.427,212.973 306.094,211.973 307.5,211.5 Z"/></g>
<g><path style="opacity:1" fill="#676767" d="M 305.5,214.5 C 305.262,216.404 304.262,217.738 302.5,218.5C 302.738,216.596 303.738,215.262 305.5,214.5 Z"/></g>
<g><path style="opacity:1" fill="#606060" d="M 302.5,218.5 C 302.262,220.404 301.262,221.738 299.5,222.5C 299.738,220.596 300.738,219.262 302.5,218.5 Z"/></g>
<g><path style="opacity:1" fill="#424242" d="M 168.5,217.5 C 170.341,219.849 171.674,222.515 172.5,225.5C 171.5,225.5 170.5,225.5 169.5,225.5C 169.167,222.833 168.833,220.167 168.5,217.5 Z"/></g>
<g><path style="opacity:1" fill="#575757" d="M 299.5,222.5 C 298.419,224.764 297.085,226.931 295.5,229C 294.251,229.74 293.251,229.573 292.5,228.5C 294.813,226.626 297.146,224.626 299.5,222.5 Z"/></g>
</svg>
